<svg width="150" height="40" viewBox="0 0 150 40" fill="none" xmlns="http://www.w3.org/2000/svg">
  <path d="M30 20C30 25.5228 25.5228 30 20 30C14.4772 30 10 25.5228 10 20C10 14.4772 14.4772 10 20 10C25.5228 10 30 14.4772 30 20Z" fill="#4BB6EF"/>
  <path d="M25 20C25 22.7614 22.7614 25 20 25C17.2386 25 15 22.7614 15 20C15 17.2386 17.2386 15 20 15C22.7614 15 25 17.2386 25 20Z" fill="#0E1420"/>
  <path d="M45 15.5C45 13.0147 47.0147 11 49.5 11H55.5C57.9853 11 60 13.0147 60 15.5V15.5C60 17.9853 57.9853 20 55.5 20H49.5C47.0147 20 45 17.9853 45 15.5V15.5Z" fill="#4BB6EF"/>
  <path d="M45 24.5C45 22.0147 47.0147 20 49.5 20H55.5C57.9853 20 60 22.0147 60 24.5V24.5C60 26.9853 57.9853 29 55.5 29H49.5C47.0147 29 45 26.9853 45 24.5V24.5Z" fill="#4BB6EF"/>
  <path d="M65 15.5C65 13.0147 67.0147 11 69.5 11H75.5C77.9853 11 80 13.0147 80 15.5V24.5C80 26.9853 77.9853 29 75.5 29H69.5C67.0147 29 65 26.9853 65 24.5V15.5Z" fill="#4BB6EF"/>
  <path d="M85 15.5C85 13.0147 87.0147 11 89.5 11H95.5C97.9853 11 100 13.0147 100 15.5V15.5C100 17.9853 97.9853 20 95.5 20H89.5C87.0147 20 85 17.9853 85 15.5V15.5Z" fill="#4BB6EF"/>
  <path d="M85 24.5C85 22.0147 87.0147 20 89.5 20H95.5C97.9853 20 100 22.0147 100 24.5V24.5C100 26.9853 97.9853 29 95.5 29H89.5C87.0147 29 85 26.9853 85 24.5V24.5Z" fill="#4BB6EF"/>
  <path d="M105 11H120V14.5H105V11Z" fill="white"/>
  <path d="M105 17.5H120V21H105V17.5Z" fill="white"/>
  <path d="M105 24H120V27.5H105V24Z" fill="white"/>
  <path d="M125 11H140V29H125V11Z" fill="white"/>
  <path d="M130 16H135V24H130V16Z" fill="#0E1420"/>
</svg>
